<svg width="24" height="25" viewBox="0 0 24 25" fill="none" xmlns="http://www.w3.org/2000/svg">
<path d="M5.31529 2.76687C6.10629 2.65387 7.21529 2.91187 8.64829 3.73287L8.92029 3.89387L9.08029 3.99387L9.47729 3.91087C10.9911 3.61836 12.5442 3.59129 14.0673 3.83087L14.5233 3.91087L14.9193 3.99387L15.0803 3.89387C16.4653 3.05387 17.5673 2.72387 18.4023 2.74587L18.5663 2.75387L18.7133 2.77087L18.7893 2.78487L18.8393 2.79587L18.9833 2.84287C19.2191 2.94033 19.4087 3.12421 19.5133 3.35687C19.9225 4.26857 20.0603 5.27888 19.9103 6.26687L19.8633 6.53387L19.8173 6.72987L19.9403 6.89287C20.5143 7.68787 20.8703 8.62087 20.9703 9.59987L20.9933 9.89487L21.0003 10.1669C21.0003 14.0219 19.3413 16.0499 16.3563 16.8469L16.1113 16.9079L15.9793 16.9369L15.9933 17.0979L16.0013 17.2549L16.0053 17.6199L16.0033 17.8329L16.0003 21.6669C16.0003 21.9118 15.9103 22.1482 15.7476 22.3312C15.5848 22.5143 15.3605 22.6312 15.1173 22.6599L15.0003 22.6669H9.00029C8.75536 22.6668 8.51896 22.5769 8.33592 22.4142C8.15289 22.2514 8.03595 22.0271 8.00729 21.7839L8.00029 21.6669V20.9329C6.18229 21.1929 4.97029 20.5089 3.89029 19.0549L3.35529 18.2889C3.07529 17.8929 2.90029 17.7099 2.76629 17.6449L2.71829 17.6259C2.47071 17.5454 2.26425 17.3716 2.14281 17.1413C2.02137 16.911 1.99452 16.6425 2.06796 16.3927C2.14141 16.143 2.30936 15.9317 2.53611 15.8038C2.76287 15.6759 3.03056 15.6415 3.28229 15.7079C3.92429 15.8959 4.35629 16.2759 4.85229 16.9469L5.39029 17.7159C6.15029 18.7949 6.75029 19.1749 7.99929 18.9069L8.00029 18.2289L7.98229 18.0609C7.95276 17.7872 7.94574 17.5117 7.96129 17.2369L7.97829 17.0519L7.99729 16.9319L7.88929 16.9079C4.91329 16.1979 3.18629 14.3349 3.01429 10.7689L3.00429 10.4589L3.00029 10.1669C3.00145 9.08345 3.31686 8.02362 3.90829 7.11587L4.06029 6.89387L4.18229 6.73087L4.13729 6.53487C3.95701 5.65643 4.00696 4.7463 4.28229 3.89287L4.38229 3.61087L4.48829 3.35787C4.59269 3.12539 4.78191 2.94154 5.01729 2.84387L5.16129 2.79687L5.31529 2.76687Z" fill="#F6F5FF"/>
</svg>
