<svg width="20" height="21" viewBox="0 0 20 21" fill="none" xmlns="http://www.w3.org/2000/svg">
<g clip-path="url(#clip0_25_875)">
<path d="M17.0392 17.7103H14.0775V13.0695C14.0775 11.9628 14.055 10.5387 12.5342 10.5387C10.99 10.5387 10.7542 11.7428 10.7542 12.9878V17.7103H7.7925V8.16699H10.6375V9.46782H10.6758C11.0733 8.71782 12.04 7.92616 13.4842 7.92616C16.485 7.92616 17.04 9.90116 17.04 12.472L17.0392 17.7103ZM4.4475 6.86116C3.49417 6.86116 2.72833 6.08949 2.72833 5.14033C2.72833 4.19199 3.495 3.42116 4.4475 3.42116C5.3975 3.42116 6.1675 4.19199 6.1675 5.14033C6.1675 6.08949 5.39667 6.86116 4.4475 6.86116ZM5.9325 17.7103H2.9625V8.16699H5.9325V17.7103ZM18.5208 0.666992H1.47583C0.66 0.666992 0 1.31199 0 2.10783V19.2262C0 20.0228 0.66 20.667 1.47583 20.667H18.5183C19.3333 20.667 20 20.0228 20 19.2262V2.10783C20 1.31199 19.3333 0.666992 18.5183 0.666992H18.5208Z" fill="#F6F5FF"/>
</g>
<defs>
<clipPath id="clip0_25_875">
<rect width="20" height="20" fill="white" transform="translate(0 0.666992)"/>
</clipPath>
</defs>
</svg>
