<svg width="26" height="26" viewBox="0 0 26 26" fill="none" xmlns="http://www.w3.org/2000/svg">
<path d="M3.90653 8.49634C3.88802 7.96623 4.08085 7.45048 4.4426 7.06254C4.80436 6.67461 5.3054 6.44627 5.83551 6.42776L19.827 5.93917C20.3571 5.92065 20.8728 6.11349 21.2608 6.47524C21.6487 6.837 21.8771 7.33804 21.8956 7.86815M3.90653 8.49634L4.25552 18.4902C4.27404 19.0204 4.50238 19.5214 4.89031 19.8832C5.27824 20.2449 5.794 20.4377 6.32411 20.4192L20.3156 19.9306C20.8457 19.9121 21.3467 19.6838 21.7085 19.2959C22.0702 18.9079 22.2631 18.3922 22.2446 17.8621L21.8956 7.86815M3.90653 8.49634L13.1104 14.1786L21.8956 7.86815" stroke="black" stroke-width="2" stroke-linecap="round" stroke-linejoin="round"/>
</svg>
