<svg width="24" height="25" viewBox="0 0 24 25" fill="none" xmlns="http://www.w3.org/2000/svg">
<path d="M22 8.20215V17.6671C22 18.4324 21.7077 19.1687 21.1827 19.7254C20.6578 20.2822 19.9399 20.6173 19.176 20.6621L19 20.6671H5C4.23479 20.6672 3.49849 20.3748 2.94174 19.8499C2.38499 19.3249 2.04989 18.607 2.005 17.8431L2 17.6671V8.20215L11.445 14.4991L11.561 14.5651C11.6977 14.6319 11.8478 14.6667 12 14.6667C12.1522 14.6667 12.3023 14.6319 12.439 14.5651L12.555 14.4991L22 8.20215Z" fill="white"/>
<path d="M18.9998 4.66699C20.0798 4.66699 21.0268 5.23699 21.5548 6.09399L11.9998 12.464L2.44482 6.09399C2.69555 5.68676 3.04004 5.34539 3.44953 5.09837C3.85903 4.85136 4.32166 4.70585 4.79882 4.67399L4.99982 4.66699H18.9998Z" fill="white"/>
<path d="M22 8.20215V17.6671C22 18.4324 21.7077 19.1687 21.1827 19.7254C20.6578 20.2822 19.9399 20.6173 19.176 20.6621L19 20.6671H5C4.23479 20.6672 3.49849 20.3748 2.94174 19.8499C2.38499 19.3249 2.04989 18.607 2.005 17.8431L2 17.6671V8.20215L11.445 14.4991L11.561 14.5651C11.6977 14.6319 11.8478 14.6667 12 14.6667C12.1522 14.6667 12.3023 14.6319 12.439 14.5651L12.555 14.4991L22 8.20215Z" stroke="white"/>
<path d="M18.9998 4.66699C20.0798 4.66699 21.0268 5.23699 21.5548 6.09399L11.9998 12.464L2.44482 6.09399C2.69555 5.68676 3.04004 5.34539 3.44953 5.09837C3.85903 4.85136 4.32166 4.70585 4.79882 4.67399L4.99982 4.66699H18.9998Z" stroke="white"/>
</svg>
