<svg width="24" height="25" viewBox="0 0 24 25" fill="none" xmlns="http://www.w3.org/2000/svg">
<path d="M19 6.85742H20C20.5304 6.85742 21.0391 7.06814 21.4142 7.44321C21.7893 7.81828 22 8.32699 22 8.85742C22 10.1835 21.4732 11.4553 20.5355 12.393C19.5979 13.3306 18.3261 13.8574 17 13.8574H12V15.8574M5 5.85742C5 5.32699 5.21071 4.81828 5.58579 4.44321C5.96086 4.06814 6.46957 3.85742 7 3.85742H17C17.5304 3.85742 18.0391 4.06814 18.4142 4.44321C18.7893 4.81828 19 5.32699 19 5.85742V7.85742C19 8.38785 18.7893 8.89656 18.4142 9.27164C18.0391 9.64671 17.5304 9.85742 17 9.85742H7C6.46957 9.85742 5.96086 9.64671 5.58579 9.27164C5.21071 8.89656 5 8.38785 5 7.85742V5.85742ZM10 16.8574C10 16.5922 10.1054 16.3379 10.2929 16.1503C10.4804 15.9628 10.7348 15.8574 11 15.8574H13C13.2652 15.8574 13.5196 15.9628 13.7071 16.1503C13.8946 16.3379 14 16.5922 14 16.8574V20.8574C14 21.1226 13.8946 21.377 13.7071 21.5645C13.5196 21.7521 13.2652 21.8574 13 21.8574H11C10.7348 21.8574 10.4804 21.7521 10.2929 21.5645C10.1054 21.377 10 21.1226 10 20.8574V16.8574Z" stroke="white" stroke-width="2" stroke-linecap="round" stroke-linejoin="round"/>
</svg>
