<svg width="24" height="25" viewBox="0 0 24 25" fill="none" xmlns="http://www.w3.org/2000/svg">
<path d="M8 7.66699V5.66699C8 5.13656 8.21071 4.62785 8.58579 4.25278C8.96086 3.87771 9.46957 3.66699 10 3.66699H14C14.5304 3.66699 15.0391 3.87771 15.4142 4.25278C15.7893 4.62785 16 5.13656 16 5.66699V7.66699M12 12.667V12.677M3 13.667C5.79158 15.0737 8.87403 15.8064 12 15.8064C15.126 15.8064 18.2084 15.0737 21 13.667M3 9.66699C3 9.13656 3.21071 8.62785 3.58579 8.25278C3.96086 7.87771 4.46957 7.66699 5 7.66699H19C19.5304 7.66699 20.0391 7.87771 20.4142 8.25278C20.7893 8.62785 21 9.13656 21 9.66699V18.667C21 19.1974 20.7893 19.7061 20.4142 20.0812C20.0391 20.4563 19.5304 20.667 19 20.667H5C4.46957 20.667 3.96086 20.4563 3.58579 20.0812C3.21071 19.7061 3 19.1974 3 18.667V9.66699Z" stroke="white" strokeWidth="2" strokeLinecap="round" strokeLinejoin="round"/>
</svg>
