<svg width="49" height="48" viewBox="0 0 49 48" fill="none" xmlns="http://www.w3.org/2000/svg">
<g clip-path="url(#clip0_25_851)">
<path d="M48.5 37.1763C47.8014 37.4405 47.0303 37.4399 46.3321 37.1747C45.6339 36.9094 45.0569 36.3977 44.71 35.7363L37.81 26.1943L36.81 24.8603L28.804 35.7483C28.478 36.382 27.9323 36.8753 27.269 37.1359C26.6057 37.3965 25.8702 37.4066 25.2 37.1643L35.516 23.3243L25.92 10.8223C26.61 10.5736 27.3646 10.5703 28.0567 10.813C28.7489 11.0556 29.3363 11.5293 29.72 12.1543L36.872 21.8143L44.064 12.1943C44.3926 11.5719 44.9384 11.0919 45.5977 10.8455C46.257 10.5992 46.9838 10.6038 47.64 10.8583L43.916 15.8003L38.872 22.3663C38.7319 22.4912 38.6199 22.6444 38.5431 22.8157C38.4664 22.987 38.4267 23.1726 38.4267 23.3603C38.4267 23.548 38.4664 23.7336 38.5431 23.9049C38.6199 24.0762 38.7319 24.2293 38.872 24.3543L48.48 37.1783L48.5 37.1763ZM0.504024 23.1523L1.34402 19.0023C3.65202 10.7963 13.06 7.38229 19.532 12.4623C23.322 15.4403 24.268 19.6563 24.082 24.4083H2.73202C2.38602 32.8943 8.51002 38.0183 16.34 35.4003C17.6093 34.9434 18.7455 34.1788 19.6467 33.1749C20.548 32.1711 21.1861 30.9593 21.504 29.6483C21.918 28.3163 22.6 28.0883 23.852 28.4723C23.6434 30.0971 23.069 31.6534 22.1722 33.0241C21.2753 34.3949 20.0793 35.5444 18.674 36.3863C16.3529 37.656 13.6897 38.1592 11.0653 37.824C8.44087 37.4889 5.98962 36.3325 4.06202 34.5203C2.15608 32.3751 1.00418 29.6653 0.782024 26.8043C0.782024 26.3343 0.622024 25.8943 0.514024 25.4723C0.504288 24.6997 0.499621 23.927 0.500024 23.1543L0.504024 23.1523ZM2.75802 22.5803H22.066C21.946 16.4283 18.064 12.0643 12.886 12.0243C7.12202 11.9443 2.99802 16.2123 2.74402 22.5523L2.75802 22.5803Z" fill="#F6F5FF" fill-opacity="0.9"/>
</g>
<defs>
<clipPath id="clip0_25_851">
<rect width="48" height="48" fill="white" transform="translate(0.5 0.000244141)"/>
</clipPath>
</defs>
</svg>
