<svg width="49" height="48" viewBox="0 0 49 48" fill="none" xmlns="http://www.w3.org/2000/svg">
<g clip-path="url(#clip0_25_846)">
<path d="M4.12207 20.462C4.02807 20.462 4.00607 20.416 4.05207 20.344L4.54407 19.714C4.59007 19.644 4.70607 19.598 4.80007 19.598H13.1441C13.2361 19.598 13.2601 19.668 13.2141 19.738L12.8161 20.344C12.7701 20.416 12.6521 20.484 12.5821 20.484L4.12207 20.462ZM0.594075 22.612C0.500075 22.612 0.476075 22.566 0.524075 22.496L1.01407 21.864C1.06007 21.794 1.17807 21.748 1.27207 21.748H11.9281C12.0221 21.748 12.0681 21.818 12.0441 21.888L11.8581 22.448C11.8341 22.542 11.7421 22.588 11.6481 22.588L0.594075 22.612ZM6.25007 24.762C6.15607 24.762 6.13207 24.692 6.18007 24.622L6.50607 24.038C6.55207 23.968 6.64607 23.898 6.74007 23.898H11.4141C11.5081 23.898 11.5541 23.968 11.5541 24.062L11.5081 24.622C11.5081 24.716 11.4141 24.786 11.3441 24.786L6.25007 24.762ZM30.5081 20.042C29.0361 20.416 28.0301 20.696 26.5821 21.07C26.2301 21.162 26.2081 21.186 25.9021 20.836C25.5541 20.438 25.2961 20.182 24.8061 19.948C23.3321 19.224 21.9061 19.434 20.5761 20.298C18.9861 21.326 18.1681 22.846 18.1921 24.738C18.2141 26.608 19.5001 28.15 21.3461 28.408C22.9361 28.618 24.2661 28.058 25.3201 26.868C25.5301 26.608 25.7161 26.328 25.9501 26H21.4401C20.9501 26 20.8321 25.696 20.9961 25.3C21.3001 24.576 21.8601 23.36 22.1881 22.752C22.2382 22.6394 22.3202 22.5439 22.424 22.4774C22.5278 22.411 22.6488 22.3764 22.7721 22.378H31.2781C31.2321 23.01 31.2321 23.64 31.1381 24.272C30.896 25.9359 30.2369 27.5114 29.2221 28.852C27.5401 31.072 25.3421 32.452 22.5621 32.824C20.2721 33.128 18.1441 32.684 16.2761 31.284C14.5461 29.974 13.5641 28.244 13.3081 26.094C13.0041 23.546 13.7521 21.256 15.2941 19.246C16.9541 17.074 19.1501 15.694 21.8381 15.206C24.0341 14.806 26.1381 15.066 28.0301 16.348C29.2701 17.168 30.1561 18.288 30.7421 19.644C30.8821 19.854 30.7881 19.972 30.5081 20.044M38.2441 32.966C36.1161 32.918 34.1761 32.31 32.5401 30.908C31.1791 29.761 30.2819 28.1579 30.0161 26.398C29.5961 23.758 30.3201 21.42 31.9101 19.34C33.6161 17.096 35.6721 15.928 38.4541 15.44C40.8381 15.02 43.0821 15.25 45.1141 16.63C46.9601 17.89 48.1061 19.598 48.4101 21.84C48.8061 24.996 47.8961 27.566 45.7221 29.764C44.1801 31.33 42.2861 32.31 40.1121 32.754C39.4821 32.874 38.8521 32.894 38.2441 32.966ZM43.8041 23.526C43.7821 23.22 43.7821 22.986 43.7361 22.752C43.3161 20.438 41.1881 19.132 38.9681 19.644C36.7941 20.134 35.3921 21.514 34.8781 23.71C34.4581 25.534 35.3461 27.38 37.0281 28.13C38.3141 28.69 39.5981 28.618 40.8381 27.99C42.6841 27.03 43.6881 25.534 43.8061 23.524L43.8041 23.526Z" fill="white"/>
</g>
<defs>
<clipPath id="clip0_25_846">
<rect width="48" height="48" fill="white" transform="translate(0.5 0.000244141)"/>
</clipPath>
</defs>
</svg>
