<svg width="49" height="48" viewBox="0 0 49 48" fill="none" xmlns="http://www.w3.org/2000/svg">
<g clip-path="url(#clip0_25_841)">
<path d="M19.9194 4.27273C19.653 3.99969 19.3346 3.7827 18.9831 3.63455C18.6315 3.4864 18.2539 3.41008 17.8724 3.41008C17.4909 3.41008 17.1133 3.4864 16.7617 3.63455C16.4102 3.7827 16.0918 3.99969 15.8254 4.27273H15.8114C15.2676 4.82967 14.9651 5.57838 14.9694 6.35673C14.9694 7.17673 15.2914 7.91073 15.8134 8.43473L15.8274 8.44873C16.3414 8.97673 17.0594 9.30073 17.8654 9.30073C18.6734 9.30073 19.3974 8.97673 19.9194 8.44873L19.9254 8.43473C20.4474 7.91073 20.7674 7.17673 20.7674 6.35673C20.7674 5.54073 20.4494 4.80273 19.9254 4.27273H19.9194ZM17.8654 44.5907C18.6734 44.5907 19.3974 44.2567 19.9194 43.7327L19.9254 43.7167C20.4474 43.1947 20.7674 42.4547 20.7674 41.6447C20.7674 40.8247 20.4494 40.0887 19.9254 39.5567H19.9194C19.6529 39.2817 19.3336 39.0633 18.9807 38.9149C18.6277 38.7664 18.2483 38.6908 17.8654 38.6927C17.4845 38.6904 17.1071 38.7658 16.7563 38.9144C16.4055 39.063 16.0888 39.2815 15.8254 39.5567H15.8114C15.2914 40.0887 14.9674 40.8247 14.9674 41.6447C14.9674 42.4567 15.2894 43.1947 15.8114 43.7167L15.8254 43.7327C16.3414 44.2567 17.0594 44.5907 17.8654 44.5907ZM33.6454 35.6667C34.3634 35.4747 35.0114 35.0067 35.4094 34.2987L35.4634 34.1947C35.8056 33.5375 35.887 32.7754 35.6914 32.0607C35.5962 31.6875 35.4279 31.3369 35.1962 31.0293C34.9644 30.7217 34.6739 30.4631 34.3414 30.2687L34.2994 30.2407C33.6437 29.8716 32.8687 29.7767 32.1434 29.9767C31.4234 30.1587 30.7754 30.6467 30.3814 31.3487C29.9814 32.0467 29.8994 32.8487 30.0894 33.5867C30.2874 34.3127 30.7494 34.9687 31.4394 35.3787H31.4434C32.1354 35.7847 32.9174 35.8567 33.6454 35.6667ZM20.8354 20.9827C20.4485 20.5869 19.9865 20.2721 19.4766 20.0568C18.9667 19.8415 18.4189 19.73 17.8654 19.7287C16.7054 19.7287 15.6594 20.2127 14.9014 20.9827C14.1454 21.7527 13.6774 22.8147 13.6774 23.9967C13.6774 25.1787 14.1434 26.2447 14.9014 27.0247C15.2886 27.4187 15.7503 27.7316 16.2597 27.9452C16.7692 28.1588 17.316 28.2688 17.8684 28.2688C18.4208 28.2688 18.9676 28.1588 19.477 27.9452C19.9864 27.7316 20.4482 27.4187 20.8354 27.0247C21.5934 26.2447 22.0594 25.1787 22.0594 23.9967C22.0594 22.8147 21.5934 21.7527 20.8354 20.9827ZM19.1654 15.9627C20.8514 16.2447 22.3654 17.0667 23.5214 18.2507H23.5294C23.7134 18.4367 23.8934 18.6427 24.0594 18.8487L26.9514 17.1467C26.5703 15.976 26.5376 14.7197 26.8574 13.5307C27.0655 12.7287 27.4298 11.9756 27.9295 11.3146C28.4292 10.6536 29.0545 10.0977 29.7694 9.67873L29.8194 9.64673C30.5215 9.23889 31.2977 8.97475 32.1029 8.86968C32.9081 8.76462 33.7261 8.82072 34.5094 9.03473C36.0494 9.45473 37.4394 10.4767 38.3054 11.9987V12.0027C39.1674 13.5167 39.3414 15.2547 38.9314 16.8187C38.7241 17.6217 38.3602 18.3757 37.8604 19.0375C37.3607 19.6993 36.735 20.2557 36.0194 20.6747L35.6234 20.9107H35.5834C34.2425 21.5586 32.713 21.7013 31.2754 21.3127C30.1041 20.9908 29.0519 20.3348 28.2474 19.4247L25.3594 21.1207C26.0444 22.979 26.0444 25.0205 25.3594 26.8787L28.2474 28.5707C29.0734 27.6307 30.1254 26.9927 31.2754 26.6827C32.0679 26.4629 32.8967 26.4062 33.7118 26.5158C34.5268 26.6255 35.3112 26.8993 36.0174 27.3207L36.1134 27.3667V27.3707C37.5095 28.2296 38.5188 29.5958 38.9294 31.1827C39.3567 32.8063 39.132 34.5326 38.3034 35.9927L38.2514 36.0987L38.2454 36.0887C37.4194 37.4933 36.0809 38.5228 34.5114 38.9607C33.7183 39.1745 32.8906 39.2284 32.0765 39.1192C31.2624 39.0101 30.4781 38.74 29.7694 38.3247V38.3127C28.3261 37.465 27.2786 36.0787 26.8574 34.4587C26.5387 33.2717 26.5713 32.0176 26.9514 30.8487L24.0594 29.1527C23.8928 29.3576 23.7159 29.5538 23.5294 29.7407L23.5214 29.7507C22.3493 30.9546 20.823 31.7521 19.1654 32.0267V35.4247C20.3521 35.6805 21.4373 36.2801 22.2854 37.1487L22.2894 37.1567C23.4194 38.3007 24.1174 39.8927 24.1174 41.6427C24.1174 43.3887 23.4174 44.9707 22.2894 46.1207L22.2854 46.1387C21.7092 46.7271 21.0216 47.1947 20.2627 47.5144C19.5038 47.8341 18.6889 47.9995 17.8654 48.0007C17.0434 47.9986 16.23 47.8331 15.4726 47.5138C14.7151 47.1945 14.0288 46.7278 13.4534 46.1407H13.4494V46.1227C12.2737 44.929 11.6156 43.3202 11.6174 41.6447C11.6174 39.8947 12.3174 38.3007 13.4494 37.1587V37.1507H13.4534C14.3011 36.2837 15.3845 35.6843 16.5694 35.4267V32.0287C14.9127 31.7549 13.3874 30.9572 12.2174 29.7527L12.2054 29.7427C10.6999 28.2085 9.85738 26.1442 9.85938 23.9947C9.85938 21.7507 10.7634 19.7227 12.2054 18.2507H12.2174C13.3875 17.0442 14.9121 16.2427 16.5694 15.9627V12.5787C15.3855 12.316 14.3032 11.7158 13.4534 10.8507H13.4494V10.8427C12.2729 9.64627 11.6148 8.03472 11.6174 6.35673C11.6174 4.61473 12.3174 3.01873 13.4494 1.87073L13.4534 1.86673C14.0272 1.27718 14.7131 0.808379 15.4708 0.487917C16.2285 0.167454 17.0427 0.0018095 17.8654 0.000732422C19.5874 0.000732422 21.1474 0.710732 22.2854 1.86473V1.86873H22.2894C23.4194 3.01673 24.1174 4.61273 24.1174 6.35473C24.1174 8.10673 23.4174 9.68873 22.2894 10.8407L22.2854 10.8507C21.4341 11.716 20.3504 12.3161 19.1654 12.5787V15.9627ZM35.4074 13.7047L35.3834 13.6667C35.0004 13.011 34.3757 12.5314 33.6434 12.3307C33.2748 12.2295 32.8897 12.2032 32.5108 12.2534C32.1319 12.3035 31.7669 12.4291 31.4374 12.6227H31.4414C30.7474 13.0227 30.2814 13.6807 30.0874 14.4147C29.8974 15.1447 29.9794 15.9507 30.3794 16.6527L30.3934 16.6707C30.7934 17.3647 31.4314 17.8287 32.1414 18.0167C32.8554 18.2227 33.6514 18.1347 34.3374 17.7287L34.3754 17.7107C35.0264 17.3135 35.4975 16.6788 35.6894 15.9407C35.8911 15.1872 35.7898 14.3846 35.4074 13.7047Z" fill="white"/>
</g>
<defs>
<clipPath id="clip0_25_841">
<rect width="48" height="48" fill="white" transform="translate(0.5 0.000244141)"/>
</clipPath>
</defs>
</svg>
