<svg width="49" height="48" viewBox="0 0 49 48" fill="none" xmlns="http://www.w3.org/2000/svg">
<g clip-path="url(#clip0_25_835)">
<path d="M47.6191 29.4459C47.5917 29.3621 47.5538 29.282 47.5065 29.2076C47.2285 28.6812 46.5529 28.524 45.4917 28.7435C42.1851 29.4256 40.9047 29.0058 40.4405 28.7052C43.1245 24.6088 45.3305 19.6612 46.5227 15.0458C47.0655 12.9444 48.1191 7.99845 46.7671 5.58265C46.6807 5.41729 46.5797 5.26 46.4653 5.11265C43.8865 1.81745 40.1017 0.049847 35.5201 0.00124695C32.5307 -0.0303531 29.9791 0.693447 29.2879 0.960047C28.9455 0.89615 28.6015 0.841729 28.2561 0.796847C27.3903 0.640067 26.5131 0.55458 25.6333 0.541247C23.2689 0.504447 21.2257 1.06965 19.5337 2.22245C17.8191 1.58025 9.95609 -1.06755 5.08989 2.38005C2.37209 4.30545 1.11749 7.74685 1.36069 12.6088C1.44249 14.2448 2.37449 19.2768 3.84529 24.0961C4.76489 27.109 5.72269 29.4998 6.71209 31.26C7.81809 33.2485 8.96389 34.4467 10.1407 34.8391C11.0355 35.1372 12.4061 35.1273 13.8569 33.3833C15.4593 31.4563 17.0375 29.7316 17.7461 28.9694C18.6163 29.4404 19.5589 29.6945 20.5261 29.7239C20.5263 29.7266 20.5265 29.7293 20.5269 29.732C20.3585 29.9327 20.1937 30.1363 20.0325 30.3428C19.3547 31.2032 19.2137 31.3822 17.0321 31.8314C16.4117 31.9594 14.7633 32.2993 14.7393 33.4545C14.7343 33.6993 14.8051 33.9163 14.9231 34.1081C15.3769 34.9543 16.7663 35.3275 16.9531 35.3743C19.6221 36.0413 21.9619 35.5583 23.6959 34.0169C23.6619 38.4789 23.8509 42.8517 24.3867 44.1917C24.8291 45.2975 25.9103 48.0007 29.3251 48.0003C29.8261 48.0003 30.3777 47.9421 30.9843 47.812C34.5481 47.0479 36.0957 45.4729 36.6943 42.0003C36.9949 40.2589 37.4975 36.2497 37.7719 33.7979C37.8057 33.6573 37.8433 33.5565 37.8859 33.5255C37.8873 33.5245 38.0253 33.4313 38.7403 33.5869C38.7695 33.5932 38.7991 33.5977 38.8289 33.6005L39.3367 33.6451L39.3665 33.6471C41.0601 33.7239 43.1893 33.3619 44.4289 32.7854C45.7165 32.1879 48.0403 30.7208 47.6191 29.4459ZM5.24229 23.7532C3.75529 18.8816 2.88649 13.983 2.81769 12.6094C2.60049 8.26665 3.65189 5.24365 5.94229 3.62405C9.61569 1.02685 15.6219 2.54245 18.1583 3.36405C18.1519 3.37045 18.1451 3.37625 18.1387 3.38285C14.0911 7.47085 14.1871 14.4548 14.1971 14.8818C14.1967 15.0464 14.2103 15.2796 14.2295 15.6004C14.2991 16.775 14.4287 18.9612 14.0825 21.4372C13.7607 23.738 14.4699 25.99 16.0281 27.6157C16.1893 27.7838 16.3577 27.9419 16.5317 28.0905C15.8381 28.8333 14.3309 30.4757 12.7267 32.4057C11.5913 33.7707 10.8073 33.509 10.5495 33.423C9.76569 33.1617 8.92349 32.2489 8.07329 30.7785C7.11409 29.1005 6.14629 26.715 5.24229 23.7532ZM17.2567 33.9275C16.9145 33.8419 16.6025 33.701 16.3923 33.5731C16.5701 33.4943 16.8671 33.3927 17.3589 33.2913C19.9255 32.7631 20.3219 32.39 21.1875 31.2908C21.3859 31.0388 21.6107 30.7534 21.9221 30.4056C21.9891 30.3305 22.0393 30.2421 22.0695 30.146C22.4111 29.8434 22.6143 29.9263 22.9433 30.0627C23.2553 30.1919 23.5589 30.5826 23.6823 31.0131C23.7405 31.2162 23.8061 31.602 23.5919 31.9018C21.7833 34.4334 19.1487 34.4007 17.2567 33.9275ZM21.4447 25.9515L21.3397 26.2334C21.0737 26.9466 20.8263 27.6096 20.6729 28.2395C19.3381 28.2353 18.0393 27.665 17.0519 26.6346C15.7961 25.3244 15.2257 23.5018 15.4869 21.6338C15.8525 19.018 15.7175 16.7402 15.6449 15.5166C15.6349 15.3452 15.6259 15.1952 15.6205 15.0768C16.2119 14.5526 18.9523 13.0844 20.9063 13.532C21.7981 13.7364 22.3415 14.3434 22.5673 15.388C23.7365 20.7957 22.7221 23.0494 21.9069 24.8606C21.7389 25.2338 21.5803 25.5864 21.4447 25.9515ZM36.1721 35.0965C36.1383 35.4501 36.1005 35.8484 36.0485 36.2882L35.7565 37.1649C35.7333 37.2343 35.721 37.307 35.7201 37.3803C35.7083 38.3297 35.6121 38.6781 35.4901 39.1189C35.3633 39.5773 35.2195 40.0971 35.1313 41.2339C34.9113 44.0625 33.3749 45.6873 30.2969 46.3469C27.2659 46.9971 26.7283 45.3533 26.2545 43.9035C26.206 43.7515 26.1547 43.6004 26.1007 43.4503C25.6699 42.2787 25.7185 40.6265 25.7859 38.3401C25.8189 37.2177 25.7361 34.5375 25.1255 33.0477C25.1343 32.4613 25.1467 31.8659 25.1635 31.264C25.1655 31.1878 25.1552 31.1118 25.1329 31.0389C25.1136 30.8983 25.0842 30.7593 25.0451 30.6229C24.7999 29.7663 24.2025 29.0496 23.4857 28.7526C23.2009 28.6346 22.6781 28.4182 22.0501 28.5788C22.1841 28.0268 22.4163 27.4038 22.6681 26.729L22.7739 26.445C22.8929 26.125 23.0419 25.7936 23.1999 25.4426C24.0529 23.5474 25.2211 20.952 23.9531 15.0882C23.4783 12.892 21.8923 11.8196 19.4883 12.0686C18.0469 12.2178 16.7285 12.7994 16.0707 13.1328C15.9388 13.1997 15.8083 13.2691 15.6791 13.341C15.8627 11.1282 16.5563 6.99285 19.1505 4.37645C19.3432 4.18227 19.5457 3.99804 19.7571 3.82445C19.8621 3.80398 19.961 3.75994 20.0465 3.69565C21.5513 2.55445 23.4355 1.99445 25.6505 2.03065C26.4687 2.04405 27.2539 2.09845 27.9989 2.19265C31.8769 2.90145 34.4867 5.08625 36.0707 6.95805C37.6993 8.88265 38.5811 10.821 38.9331 11.8666C36.2867 11.5974 34.4863 12.1202 33.5737 13.4246C31.5885 16.2624 34.6597 21.7704 36.1359 24.4174C36.4065 24.9026 36.6403 25.3218 36.7137 25.5C37.1943 26.665 37.8167 27.4426 38.2711 28.0105C38.4103 28.1845 38.5455 28.3533 38.6481 28.5005C37.8465 28.7314 36.4065 29.2654 36.5377 31.9345C36.5131 32.2471 36.4531 32.8283 36.3709 33.5641C36.2787 33.9795 36.2305 34.4846 36.1721 35.0965ZM37.9531 31.8542C37.8721 30.191 38.4913 30.0173 39.1465 29.8333C39.2371 29.8084 39.3272 29.7813 39.4165 29.7521C39.501 29.8269 39.5907 29.8958 39.6849 29.958C40.8255 30.7111 42.8495 30.8006 45.6985 30.2269C45.2953 30.5807 44.6607 31.0257 43.7919 31.4291C42.9723 31.8097 41.6005 32.0951 40.2973 32.1562C38.8579 32.2234 38.1255 31.9949 37.9531 31.8542ZM39.0921 13.3118C39.0803 14.0134 38.9837 14.6502 38.8813 15.3152C38.7713 16.0304 38.6573 16.77 38.6285 17.6676C38.6001 18.5412 38.7093 19.4494 38.8149 20.3278C39.0281 22.1018 39.2469 23.9284 38.3999 25.7306C38.2593 25.4814 38.134 25.2239 38.0247 24.9594C37.9193 24.7042 37.6909 24.2943 37.3745 23.727C36.1433 21.5189 33.2597 16.3478 34.7359 14.2378C35.4949 13.1524 37.4175 13.1056 39.0921 13.3118ZM39.5489 27.3393C39.4924 27.2673 39.4356 27.1957 39.3783 27.1245L39.3073 27.0357C40.7597 24.6367 40.4757 22.2632 40.2229 20.1586C40.1191 19.295 40.0211 18.4794 40.0459 17.7134C40.0717 16.9012 40.1791 16.2048 40.2829 15.5312C40.4107 14.7012 40.5405 13.8426 40.5047 12.8302C40.5315 12.724 40.5423 12.5986 40.5283 12.4498C40.4369 11.4788 39.3285 8.57385 37.0695 5.94385C35.8543 4.52925 34.0903 2.94945 31.6917 1.86485C32.7419 1.65165 34.1573 1.45785 35.7405 1.49305C39.8435 1.58425 43.0897 3.12005 45.3889 6.05785C45.4377 6.12162 45.4823 6.18857 45.5223 6.25825C46.9685 8.96945 44.9699 18.8084 39.5489 27.3393ZM21.9157 15.1068C21.8657 15.4656 21.2979 15.9518 20.6735 15.9518C20.6194 15.9519 20.5653 15.9481 20.5117 15.9406C20.1371 15.8886 19.7587 15.6526 19.4999 15.3094C19.4083 15.1884 19.2593 14.9534 19.2889 14.7406C19.2999 14.6604 19.3411 14.5436 19.4739 14.443C19.7103 14.2642 20.1775 14.1978 20.6931 14.2696C21.3257 14.3578 21.9783 14.6572 21.9157 15.1068ZM37.7767 14.284C37.7989 14.4424 37.6787 14.686 37.4705 14.9044C37.3339 15.0478 37.0465 15.2966 36.6547 15.3508C36.605 15.3578 36.5549 15.3612 36.5047 15.3612C35.9177 15.3612 35.4219 14.8924 35.3833 14.6178C35.3353 14.2648 35.9115 13.9966 36.5055 13.9138C37.0995 13.831 37.7277 13.9314 37.7767 14.284Z" fill="white"/>
</g>
<defs>
<clipPath id="clip0_25_835">
<rect width="48" height="48" fill="white" transform="translate(0.5 0.000244141)"/>
</clipPath>
</defs>
</svg>
