<svg width="49" height="48" viewBox="0 0 49 48" fill="none" xmlns="http://www.w3.org/2000/svg">
<path d="M28.5181 23.9641C28.5181 21.8125 26.7192 20.068 24.4998 20.068C22.2807 20.068 20.4814 21.8125 20.4814 23.9641C20.4814 26.116 22.2807 27.8603 24.4998 27.8603C26.7192 27.8603 28.5181 26.116 28.5181 23.9641Z" fill="white"/>
<path fill-rule="evenodd" clip-rule="evenodd" d="M37.5506 16.7309C38.3992 13.3875 39.4658 7.18758 35.7056 5.0856C31.9629 2.99279 27.0926 7.00301 24.5209 9.41013C21.9566 7.02699 16.9494 3.03392 13.1924 5.14257C9.45126 7.24241 10.605 13.3396 11.4724 16.7039C7.98246 17.665 2 19.735 2 23.9642C2 28.1815 7.97624 30.4336 11.4455 31.3937C10.5749 34.7767 9.47894 40.7867 13.2249 42.8819C16.9959 44.9902 21.9875 41.0921 24.5831 38.6587C27.1714 41.08 31.9949 45.0035 35.7383 42.9025C39.4934 40.7948 38.5154 34.678 37.6479 31.2941C41.011 30.3319 47 28.1288 47 23.9642C47 19.7756 40.9855 17.6888 37.5506 16.7309ZM37.1243 29.5009C36.5548 27.7528 35.786 25.8938 34.8456 23.9735C35.7433 22.0985 36.4822 20.2636 37.0358 18.5267C39.5539 19.2346 45.0778 20.8523 45.0778 23.9642C45.0778 27.1054 39.7769 28.7384 37.1243 29.5009ZM34.775 41.2894C31.982 42.8569 27.8331 39.1048 25.9217 37.3217C27.1898 35.977 28.457 34.4137 29.6937 32.6777C31.8693 32.4907 33.9245 32.1847 35.7884 31.7669C36.3989 34.1605 37.5803 39.7148 34.775 41.2894ZM14.1854 41.267C11.3921 39.7054 12.6689 34.3423 13.3094 31.8503C15.1525 32.2457 17.1929 32.5301 19.3736 32.7016C20.6185 34.4002 21.9224 35.9615 23.2364 37.3289C21.613 38.8516 16.9917 42.8359 14.1854 41.267ZM3.92224 23.9642C3.92224 20.8114 9.41311 19.2053 11.9886 18.4993C12.5518 20.2751 13.2904 22.132 14.1818 24.0097C13.2789 25.9153 12.5297 27.8015 11.9613 29.5984C9.50554 28.9168 3.92224 27.119 3.92224 23.9642ZM14.1556 6.75567C16.9602 5.1816 21.312 9.01511 23.1739 10.7406C21.8666 12.1017 20.5746 13.6513 19.3405 15.3401C17.2241 15.5303 15.1981 15.8357 13.3356 16.2449C12.6369 13.5314 11.3539 8.32805 14.1556 6.75567ZM31.0689 17.366C32.5047 17.5417 33.8804 17.7754 35.1721 18.0613C34.7843 19.2664 34.301 20.5265 33.7317 21.8183C32.9066 20.3003 32.0208 18.8128 31.0689 17.366ZM24.5215 12.0725C25.4081 13.0038 26.2961 14.0438 27.1697 15.1721C25.3978 15.0908 23.6229 15.0905 21.851 15.1709C22.7253 14.0531 23.621 13.0146 24.5215 12.0725ZM15.2847 21.817C14.7249 20.5297 14.246 19.264 13.8548 18.0416C15.1388 17.7631 16.508 17.5354 17.9345 17.3626C16.9799 18.8062 16.0956 20.2931 15.2847 21.817ZM17.9755 30.6989C16.5019 30.5395 15.1119 30.3233 13.8283 30.0524C14.2257 28.8086 14.7152 27.5156 15.2869 26.2006C16.109 27.7403 17.0068 29.2417 17.9755 30.6989ZM24.5747 35.9876C23.6636 35.0344 22.7547 33.98 21.8672 32.846C23.6492 32.9138 25.4347 32.914 27.2165 32.8369C26.3402 33.9916 25.4554 35.0474 24.5747 35.9876ZM33.75 26.1337C34.3516 27.463 34.8586 28.7489 35.2613 29.9717C33.9564 30.2605 32.5478 30.493 31.0635 30.6656C32.0225 29.1914 32.9223 27.6808 33.75 26.1337ZM28.6209 30.8915C25.8951 31.0804 23.1524 31.0783 20.4257 30.907C18.8764 28.7126 17.4971 26.4049 16.3065 24.0091C17.4914 21.6182 18.8606 19.315 20.4026 17.1241C23.1313 16.9241 25.8767 16.9235 28.6054 17.1253C30.1341 19.316 31.5013 21.6133 32.7136 23.9825C31.5156 26.3722 30.1392 28.6801 28.6209 30.8915ZM34.7454 6.70026C37.5509 8.26917 36.3022 13.8413 35.6892 16.2643C33.8223 15.8465 31.7949 15.5357 29.6724 15.3425C28.4358 13.6354 27.1547 12.0831 25.8686 10.7396C27.7542 8.97698 31.9671 5.1467 34.7454 6.70026Z" fill="white"/>
</svg>
