<svg width="49" height="48" viewBox="0 0 49 48" fill="none" xmlns="http://www.w3.org/2000/svg">
<g clip-path="url(#clip0_25_824)">
<path d="M48.1688 23.4067L46.1542 22.1595C46.1374 21.9635 46.1186 21.7678 46.0976 21.5723L47.8288 19.9585C47.9142 19.8774 47.9777 19.7761 48.0133 19.6638C48.0489 19.5516 48.0555 19.4322 48.0324 19.3168C48.0094 19.2013 47.9574 19.0936 47.8815 19.0036C47.8055 18.9137 47.708 18.8445 47.598 18.8025L45.3848 17.9745C45.3301 17.7831 45.2721 17.5926 45.2108 17.4033L46.5916 15.4859C46.6608 15.3901 46.7044 15.2781 46.7181 15.1607C46.7318 15.0434 46.7153 14.9244 46.67 14.8152C46.6248 14.706 46.5523 14.6102 46.4596 14.537C46.3668 14.4637 46.2569 14.4154 46.1402 14.3967L43.8076 14.0179C43.7166 13.8416 43.6228 13.6668 43.5262 13.4935L44.5062 11.3413C44.5556 11.2339 44.5765 11.1157 44.5669 10.998C44.5573 10.8802 44.5175 10.7669 44.4514 10.6691C44.3855 10.571 44.2957 10.4913 44.1906 10.4374C44.0854 10.3835 43.9683 10.3572 43.8502 10.3611L41.4812 10.4443C41.3596 10.2904 41.2347 10.1391 41.1066 9.99066L41.6512 7.68466C41.6781 7.56966 41.6752 7.44971 41.6428 7.33613C41.6105 7.22255 41.5497 7.11911 41.4662 7.03558C41.3827 6.95205 41.2793 6.89119 41.1657 6.85877C41.0522 6.82634 40.9322 6.82341 40.8172 6.85026L38.5108 7.39506C38.3602 7.2686 38.2084 7.14372 38.0552 7.02046L38.1382 4.65146C38.1438 4.53293 38.1188 4.41495 38.0654 4.30898C38.012 4.203 37.9321 4.11262 37.8335 4.04662C37.7349 3.98061 37.6209 3.94121 37.5026 3.93225C37.3843 3.92328 37.2656 3.94506 37.1582 3.99546L35.0062 4.97746C34.8318 4.88226 34.6578 4.78706 34.4816 4.69606L34.101 2.36146C34.0812 2.24534 34.0323 2.13613 33.9588 2.04405C33.8854 1.95196 33.7898 1.88001 33.6809 1.83492C33.5721 1.78983 33.4536 1.77307 33.3366 1.78621C33.2195 1.79935 33.1077 1.84196 33.0116 1.91006L31.0922 3.29106C30.9029 3.23038 30.7125 3.17304 30.5212 3.11906L29.6932 0.905857C29.6512 0.795847 29.582 0.698284 29.492 0.622285C29.402 0.546287 29.2943 0.494334 29.1788 0.471281C29.0633 0.448228 28.9439 0.454828 28.8316 0.490465C28.7194 0.526101 28.618 0.58961 28.537 0.675057L26.9232 2.40826C26.7278 2.38622 26.532 2.36728 26.336 2.35146L25.0888 0.336657C25.0268 0.236167 24.9401 0.153211 24.8369 0.0956744C24.7338 0.0381383 24.6177 0.00793457 24.4996 0.00793457C24.3815 0.00793457 24.2654 0.0381383 24.1622 0.0956744C24.0591 0.153211 23.9724 0.236167 23.9104 0.336657L22.6632 2.35126C22.4673 2.36809 22.2715 2.38702 22.076 2.40806L20.4602 0.674857C20.3797 0.588361 20.2784 0.523904 20.166 0.48762C20.0535 0.451336 19.9336 0.444433 19.8178 0.467567C19.7019 0.490701 19.5939 0.543103 19.504 0.619786C19.4141 0.696469 19.3453 0.794881 19.3042 0.905657L18.476 3.11866C18.2836 3.17346 18.0954 3.23206 17.905 3.29066L15.9876 1.91006C15.8915 1.84196 15.7796 1.79935 15.6626 1.78623C15.5455 1.7731 15.427 1.78987 15.3182 1.83499C15.2093 1.8801 15.1137 1.95207 15.0403 2.04418C14.9668 2.13629 14.918 2.24552 14.8982 2.36166L14.5176 4.69606C14.3413 4.78707 14.1665 4.88088 13.9932 4.97746L11.8408 3.99546C11.7333 3.94626 11.615 3.92541 11.4971 3.93491C11.3793 3.9444 11.2658 3.98391 11.1675 4.04968C11.0693 4.11545 10.9895 4.20529 10.9358 4.31063C10.8821 4.41597 10.8563 4.53331 10.8608 4.65146L10.944 7.02046C10.7898 7.14251 10.6379 7.2674 10.4884 7.39506L8.1822 6.85006C8.06719 6.82318 7.94724 6.82608 7.83367 6.85848C7.7201 6.89088 7.61667 6.95171 7.53316 7.03522C7.44965 7.11873 7.38882 7.22216 7.35642 7.33573C7.32402 7.4493 7.32112 7.56926 7.348 7.68426L7.8906 9.99046C7.765 10.1405 7.6396 10.2923 7.518 10.4441L5.149 10.3611C5.03085 10.3566 4.91351 10.3824 4.80817 10.4361C4.70283 10.4898 4.61299 10.5695 4.54722 10.6678C4.48145 10.7661 4.44194 10.8795 4.43245 10.9974C4.42295 11.1152 4.4438 11.2335 4.493 11.3411L5.475 13.4933C5.37837 13.6665 5.28455 13.8413 5.1936 14.0177L2.8612 14.3965C2.74509 14.4162 2.6359 14.4651 2.54382 14.5386C2.45174 14.612 2.37978 14.7076 2.33467 14.8164C2.28956 14.9252 2.27277 15.0436 2.28588 15.1607C2.29898 15.2777 2.34155 15.3895 2.4096 15.4857L3.7904 17.4031C3.73026 17.5927 3.67226 17.7831 3.6164 17.9741L1.4034 18.8021C1.29337 18.8441 1.19579 18.9133 1.11977 19.0032C1.04375 19.0931 0.991774 19.2009 0.968701 19.3164C0.945628 19.4319 0.95221 19.5513 0.987833 19.6636C1.02346 19.7758 1.08695 19.8772 1.1724 19.9583L2.9036 21.5723C2.88163 21.7676 2.86276 21.9633 2.847 22.1593L0.832397 23.4065C0.73096 23.4677 0.647064 23.5542 0.588831 23.6574C0.530598 23.7606 0.5 23.8771 0.5 23.9957C0.5 24.1142 0.530598 24.2307 0.588831 24.3339C0.647064 24.4371 0.73096 24.5236 0.832397 24.5849L2.847 25.8321C2.863 26.0285 2.8834 26.2249 2.9036 26.4193L1.1724 28.0351C1.08591 28.1156 1.02146 28.2169 0.985187 28.3293C0.948917 28.4418 0.942032 28.5617 0.965186 28.6775C0.988341 28.7934 1.04077 28.9014 1.11747 28.9913C1.19417 29.0812 1.29261 29.15 1.4034 29.1911L3.6164 30.0193C3.671 30.2117 3.7298 30.4021 3.7904 30.5903L2.4096 32.5077C2.33971 32.6034 2.29568 32.7156 2.28174 32.8334C2.26779 32.9511 2.28441 33.0705 2.32999 33.1799C2.37557 33.2894 2.44857 33.3853 2.54196 33.4583C2.63535 33.5314 2.74598 33.5792 2.8632 33.5971L5.1956 33.9757C5.2868 34.1517 5.38 34.3259 5.4772 34.5001L4.4952 36.6525C4.446 36.76 4.42515 36.8783 4.43465 36.9961C4.44414 37.114 4.48365 37.2275 4.54942 37.3257C4.61519 37.424 4.70503 37.5037 4.81037 37.5574C4.91571 37.6111 5.03305 37.637 5.1512 37.6325L7.518 37.5495C7.6416 37.7033 7.765 37.8551 7.8926 38.0049L7.35 40.3131C7.32295 40.428 7.32575 40.5479 7.35813 40.6615C7.3905 40.7751 7.45138 40.8784 7.53498 40.9618C7.61857 41.0452 7.72211 41.1059 7.83574 41.138C7.94937 41.1701 8.06932 41.1726 8.1842 41.1453L10.4902 40.6027C10.6402 40.7303 10.7922 40.8537 10.946 40.9753L10.863 43.3443C10.8577 43.4626 10.8831 43.5803 10.9366 43.686C10.9901 43.7917 11.07 43.8818 11.1686 43.9476C11.2671 44.0134 11.381 44.0526 11.4991 44.0615C11.6173 44.0703 11.7357 44.0486 11.843 43.9983L13.9952 43.0183C14.1692 43.1155 14.3434 43.2085 14.5196 43.2997L14.9002 45.6321C14.9197 45.7484 14.9684 45.8578 15.0417 45.9502C15.115 46.0425 15.2106 46.1148 15.3195 46.1601C15.4283 46.2054 15.5469 46.2224 15.6641 46.2094C15.7813 46.1963 15.8933 46.1538 15.9896 46.0857L17.907 44.7049C18.0964 44.7659 18.2867 44.8239 18.478 44.8789L19.306 47.0921C19.3466 47.2033 19.4152 47.3021 19.5051 47.3792C19.595 47.4563 19.7032 47.5089 19.8193 47.5321C19.9354 47.5553 20.0555 47.5482 20.1681 47.5116C20.2807 47.4749 20.382 47.4099 20.4622 47.3229L22.078 45.5917C22.2724 45.6139 22.4688 45.6323 22.6652 45.6505L23.9124 47.6651C23.9748 47.7651 24.0616 47.8476 24.1647 47.9048C24.2678 47.962 24.3837 47.992 24.5016 47.992C24.6195 47.992 24.7354 47.962 24.8385 47.9048C24.9416 47.8476 25.0284 47.7651 25.0908 47.6651L26.338 45.6505C26.5344 45.6323 26.7308 45.6139 26.9252 45.5917L28.539 47.3229C28.62 47.4083 28.7214 47.4717 28.8336 47.5073C28.9458 47.5429 29.0652 47.5495 29.1807 47.5265C29.2961 47.5034 29.4039 47.4515 29.4938 47.3755C29.5837 47.2996 29.653 47.202 29.695 47.0921L30.5232 44.8789C30.7145 44.8242 30.9049 44.7662 31.0942 44.7049L33.0116 46.0857C33.1074 46.1555 33.2196 46.1996 33.3373 46.2135C33.4551 46.2275 33.5744 46.2108 33.6839 46.1653C33.7933 46.1197 33.8892 46.0467 33.9623 45.9533C34.0353 45.8599 34.0831 45.7493 34.101 45.6321L34.4816 43.2997C34.6576 43.2085 34.8318 43.1135 35.006 43.0183L37.1584 43.9983C37.2658 44.0468 37.3838 44.0672 37.5012 44.0575C37.6187 44.0479 37.7317 44.0085 37.8298 43.9431C37.9278 43.8776 38.0076 43.7883 38.0616 43.6836C38.1155 43.5788 38.142 43.4621 38.1384 43.3443L38.0554 40.9753C38.2092 40.8544 38.3604 40.7301 38.5088 40.6027L40.815 41.1453C40.9298 41.172 41.0495 41.1691 41.1628 41.1368C41.2761 41.1045 41.3794 41.0438 41.4628 40.9606C41.5463 40.8774 41.6072 40.7743 41.6398 40.661C41.6724 40.5478 41.6756 40.4281 41.6492 40.3133L41.1066 38.0049C41.2322 37.8551 41.3576 37.7033 41.4792 37.5493L43.8482 37.6323C43.9667 37.6379 44.0847 37.6128 44.1907 37.5594C44.2966 37.5061 44.387 37.4262 44.453 37.3276C44.519 37.229 44.5584 37.115 44.5674 36.9966C44.5764 36.8783 44.5546 36.7597 44.5042 36.6523L43.5242 34.5003C43.6192 34.3259 43.7144 34.1519 43.8056 33.9757L46.138 33.5971C46.2541 33.5773 46.3634 33.5284 46.4555 33.455C46.5476 33.3815 46.6196 33.2859 46.6647 33.1771C46.7098 33.0683 46.7266 32.9498 46.7134 32.8327C46.7003 32.7156 46.6577 32.6038 46.5896 32.5077L45.2088 30.5903L45.3828 30.0193L47.596 29.1913C47.7068 29.1502 47.8053 29.0814 47.882 28.9915C47.9587 28.9016 48.0111 28.7935 48.0342 28.6776C48.0574 28.5617 48.0505 28.4418 48.0141 28.3293C47.9778 28.2169 47.9133 28.1155 47.8268 28.0351L46.0956 26.4193C46.1158 26.2249 46.136 26.0285 46.1522 25.8321L48.1668 24.5849C48.2682 24.5236 48.3521 24.4371 48.4104 24.3339C48.4686 24.2307 48.4992 24.1142 48.4992 23.9957C48.4992 23.8771 48.4686 23.7606 48.4104 23.6574C48.3521 23.5542 48.2682 23.4677 48.1668 23.4065L48.1688 23.4067ZM34.6862 40.1169C34.3177 40.0359 33.9963 39.8124 33.7922 39.4952C33.588 39.1779 33.5177 38.7928 33.5966 38.4239C33.6755 38.055 33.8972 37.7324 34.2133 37.5264C34.5293 37.3205 34.9141 37.248 35.2834 37.3249C35.4693 37.3616 35.646 37.435 35.8033 37.5407C35.9606 37.6464 36.0952 37.7824 36.1994 37.9407C36.3036 38.0989 36.3752 38.2764 36.4101 38.4626C36.445 38.6489 36.4425 38.8402 36.4028 39.0255C36.363 39.2108 36.2867 39.3863 36.1784 39.5418C36.0702 39.6973 35.932 39.8297 35.772 39.9313C35.6121 40.0329 35.4335 40.1016 35.2467 40.1334C35.0599 40.1653 34.8686 40.1597 34.684 40.1169H34.6862ZM34.0018 35.4885C33.8348 35.4525 33.6623 35.4499 33.4943 35.4807C33.3263 35.5115 33.166 35.5752 33.0227 35.6681C32.8794 35.761 32.7557 35.8813 32.659 36.0221C32.5622 36.1629 32.4942 36.3213 32.4588 36.4885L31.7442 39.8255C29.5372 40.8275 27.0872 41.3845 24.5056 41.3845C21.9529 41.3881 19.4303 40.8324 17.1154 39.7565L16.4006 36.4197C16.3652 36.2526 16.2972 36.0942 16.2004 35.9535C16.1036 35.8129 15.98 35.6927 15.8366 35.6C15.6933 35.5072 15.533 35.4438 15.365 35.4132C15.197 35.3825 15.0247 35.3854 14.8578 35.4217L11.9118 36.0533C11.3644 35.4896 10.8557 34.8895 10.3892 34.2573H24.7244C24.8864 34.2573 24.9956 34.2291 24.9956 34.0813V29.0093C24.9956 28.8613 24.8884 28.8331 24.7244 28.8331H20.5312V25.6177H25.0666C25.4796 25.6177 27.2796 25.7351 27.8546 28.0353C28.0348 28.7419 28.4296 31.0441 28.701 31.7811C28.9702 32.6071 30.0676 34.2573 31.238 34.2573H38.3812C38.4682 34.2561 38.5549 34.2473 38.6404 34.2311C38.1451 34.9039 37.6025 35.5406 37.0166 36.1363L34.0018 35.4885ZM14.1734 40.0481C13.9888 40.0909 13.7975 40.0965 13.6107 40.0646C13.4239 40.0328 13.2453 39.9641 13.0854 39.8625C12.9254 39.7609 12.7872 39.6285 12.6789 39.473C12.5707 39.3175 12.4944 39.142 12.4546 38.9567C12.4148 38.7714 12.4123 38.5801 12.4473 38.3938C12.4822 38.2076 12.5538 38.0301 12.658 37.8719C12.7622 37.7136 12.8968 37.5776 13.0541 37.4719C13.2114 37.3662 13.3881 37.2928 13.574 37.2561C13.9416 37.1834 14.323 37.2582 14.6359 37.4642C14.9489 37.6702 15.1684 37.9909 15.247 38.3572C15.3256 38.7236 15.2572 39.1061 15.0563 39.4224C14.8555 39.7387 14.5384 39.9634 14.1734 40.0481ZM8.735 17.9945C8.81749 18.1666 8.8646 18.3536 8.87355 18.5443C8.8825 18.735 8.8531 18.9256 8.78709 19.1047C8.72108 19.2839 8.61981 19.448 8.48926 19.5873C8.35871 19.7266 8.20155 19.8383 8.02706 19.9158C7.85258 19.9932 7.66432 20.0349 7.47343 20.0384C7.28255 20.0418 7.09291 20.0069 6.91575 19.9358C6.73859 19.8646 6.5775 19.7587 6.44202 19.6241C6.30654 19.4896 6.19942 19.3293 6.127 19.1527C5.98655 18.8091 5.98548 18.4243 6.124 18.0799C6.26253 17.7355 6.52977 17.4586 6.86902 17.308C7.20828 17.1574 7.59287 17.1448 7.94123 17.273C8.28959 17.4012 8.57431 17.6598 8.735 17.9945ZM7.0646 21.9571L10.134 20.5923C10.2901 20.5229 10.4311 20.4235 10.5488 20.2997C10.6665 20.1758 10.7586 20.03 10.8199 19.8706C10.8812 19.7111 10.9104 19.5411 10.906 19.3703C10.9016 19.1995 10.8635 19.0313 10.794 18.8753L10.1624 17.4459H12.6488V28.6509H7.6334C7.01493 26.4762 6.82247 24.2025 7.0666 21.9549L7.0646 21.9571ZM20.5332 20.8697V17.5673H26.4534C26.7594 17.5673 28.6118 17.9217 28.6118 19.3067C28.6118 20.4567 27.1904 20.8697 26.0222 20.8697H20.5332ZM42.048 23.8421C42.048 24.2795 42.032 24.7147 41.9994 25.1441H40.1994C40.0194 25.1441 39.9464 25.2613 39.9464 25.4395V26.2655C39.9464 28.2115 38.849 28.6347 37.8872 28.7419C36.972 28.8453 35.9576 28.3593 35.8322 27.7985C35.2914 24.7613 34.3926 24.1113 32.9712 22.9917C34.7346 21.8719 36.5692 20.2197 36.5692 18.0087C36.5692 15.6215 34.9312 14.1171 33.8154 13.3781C32.2504 12.3455 30.5172 12.1391 30.0494 12.1391H11.436C14.0084 9.26261 17.4581 7.31534 21.25 6.59926L23.4448 8.90126C23.5624 9.02497 23.7032 9.12425 23.8593 9.19337C24.0153 9.2625 24.1835 9.30013 24.3541 9.30409C24.5248 9.30804 24.6945 9.27826 24.8536 9.21644C25.0127 9.15462 25.158 9.06199 25.2812 8.94386L27.7352 6.59526C30.2374 7.06453 32.6075 8.07254 34.6812 9.54936C36.7548 11.0262 38.4824 12.9365 39.744 15.1477L38.0634 18.9441C37.9241 19.2594 37.9154 19.617 38.0391 19.9388C38.1627 20.2605 38.4088 20.5202 38.7234 20.6611L41.959 22.0987C42.0156 22.6737 42.044 23.2527 42.044 23.8421H42.048ZM23.4468 4.64346C23.7204 4.38248 24.0865 4.24089 24.4645 4.24981C24.6516 4.25423 24.8361 4.29547 25.0073 4.37118C25.1785 4.44689 25.3332 4.55559 25.4624 4.69106C25.5916 4.82653 25.6929 4.98613 25.7604 5.16074C25.828 5.33535 25.8605 5.52155 25.856 5.70872C25.8516 5.89588 25.8104 6.08034 25.7347 6.25157C25.659 6.4228 25.5503 6.57744 25.4148 6.70666C25.1375 6.94603 24.7788 7.06963 24.4129 7.0519C24.0471 7.03417 23.702 6.87645 23.4492 6.61139C23.1963 6.34632 23.0551 5.99421 23.0546 5.6279C23.0542 5.26159 23.1946 4.90913 23.4468 4.64346ZM40.1246 18.0635C40.2001 17.8922 40.3086 17.7376 40.444 17.6084C40.5794 17.4793 40.739 17.3781 40.9135 17.3107C41.0881 17.2434 41.2743 17.2112 41.4613 17.2159C41.6484 17.2207 41.8327 17.2623 42.0036 17.3385C42.262 17.4525 42.4808 17.6406 42.6322 17.879C42.7836 18.1174 42.8609 18.3954 42.8543 18.6777C42.8477 18.9601 42.7575 19.2341 42.5951 19.4652C42.4327 19.6963 42.2054 19.874 41.9419 19.9758C41.6785 20.0776 41.3907 20.099 41.1151 20.0372C40.8396 19.9754 40.5885 19.8333 40.3937 19.6288C40.1989 19.4242 40.0692 19.1665 40.0209 18.8883C39.9727 18.61 40.008 18.3236 40.1226 18.0655L40.1246 18.0635Z" fill="white"/>
</g>
<defs>
<clipPath id="clip0_25_824">
<rect width="48" height="48" fill="white" transform="translate(0.5 0.000244141)"/>
</clipPath>
</defs>
</svg>
