<svg width="49" height="48" viewBox="0 0 49 48" fill="none" xmlns="http://www.w3.org/2000/svg">
<g clip-path="url(#clip0_25_819)">
<path d="M44.2072 2.83192C43.5408 4.43061 42.6781 5.94025 41.6392 7.32612C39.4146 5.02573 36.7511 3.19485 33.8065 1.94179C30.8619 0.688727 27.6958 0.0389315 24.4957 0.0308383C21.2955 0.022745 18.1263 0.656519 15.1753 1.89467C12.2244 3.13282 9.55174 4.9502 7.31545 7.23932C5.07916 9.52843 3.32466 12.2428 2.15573 15.2218C0.986796 18.2008 0.427174 21.384 0.509964 24.5831C0.592755 27.7822 1.31628 30.9322 2.63773 33.8468C3.95919 36.7614 5.85174 39.3813 8.20343 41.5517L9.09243 42.3419C12.466 45.1871 16.5612 47.043 20.9245 47.7041C25.2878 48.3652 29.7489 47.8058 33.8139 46.0878C37.8789 44.3698 41.389 41.5602 43.9556 37.9702C46.5222 34.3802 48.0451 30.1499 48.3556 25.7477C49.047 19.7225 47.2198 12.0181 44.2072 2.83192ZM11.6608 41.7493C11.4069 42.0614 11.0662 42.2911 10.6817 42.4096C10.2972 42.528 9.88626 42.5299 9.50074 42.4148C9.11523 42.2998 8.77247 42.0731 8.51578 41.7633C8.25909 41.4535 8.09999 41.0746 8.05858 40.6744C8.01717 40.2742 8.09532 39.8708 8.28315 39.515C8.47098 39.1592 8.76005 38.8671 9.11384 38.6756C9.46763 38.4841 9.87026 38.4017 10.2708 38.4389C10.6714 38.4761 11.052 38.6313 11.3644 38.8847C11.774 39.2316 12.0336 39.7235 12.0889 40.2574C12.1441 40.7913 11.9907 41.3259 11.6608 41.7493ZM44.059 34.5881C38.182 42.4407 25.5388 39.7737 17.4886 40.1689C17.4886 40.1689 16.0564 40.2677 14.624 40.4651C14.624 40.4651 15.1674 40.2183 15.8588 39.9713C21.5384 37.9959 24.2052 37.6007 27.6624 35.8227C34.1322 32.5137 40.602 25.2539 41.886 17.7469C39.4166 24.9575 31.9098 31.1803 25.0942 33.6991C20.4024 35.4277 11.9572 37.1069 11.9572 37.1069L11.6114 36.9093C5.88243 34.0941 5.68503 21.6485 16.155 17.6481C20.7482 15.8701 25.0942 16.8581 30.0824 15.6727C35.3668 14.4379 41.491 10.4869 43.9604 5.30132C46.726 13.6477 50.0844 26.5873 44.059 34.5881Z" fill="#F6F5FF" fill-opacity="0.9"/>
</g>
<defs>
<clipPath id="clip0_25_819">
<rect width="48" height="48" fill="white" transform="translate(0.5 0.000244141)"/>
</clipPath>
</defs>
</svg>
