<svg width="49" height="48" viewBox="0 0 49 48" fill="none" xmlns="http://www.w3.org/2000/svg">
<g clip-path="url(#clip0_25_830)">
<path d="M2.75 0C1.504 0 0.5 1.004 0.5 2.25V45.75C0.5 46.996 1.504 48 2.75 48H46.25C47.496 48 48.5 46.996 48.5 45.75V2.25C48.5 1.004 47.496 0 46.25 0H2.75ZM37.476 19.5C38.7 19.5 39.784 19.574 40.73 19.722C41.6223 19.8557 42.4978 20.0836 43.342 20.402V25.318C42.9368 25.0378 42.5062 24.796 42.056 24.596C41.5917 24.3871 41.1123 24.2132 40.622 24.076C39.6932 23.8172 38.7342 23.6827 37.77 23.676C37.17 23.676 36.624 23.732 36.132 23.848C35.6935 23.9418 35.2728 24.1052 34.886 24.332C34.546 24.54 34.286 24.79 34.1 25.08C33.9129 25.3723 33.8156 25.713 33.82 26.06C33.82 26.452 33.926 26.806 34.132 27.118C34.34 27.43 34.636 27.726 35.018 28.006C35.4 28.286 35.864 28.558 36.41 28.826C36.956 29.096 37.574 29.374 38.262 29.658C39.202 30.052 40.046 30.472 40.794 30.914C41.542 31.358 42.184 31.86 42.72 32.42C43.256 32.978 43.664 33.616 43.948 34.334C44.232 35.052 44.376 35.886 44.376 36.84C44.376 38.154 44.126 39.26 43.63 40.152C43.1454 41.0317 42.4499 41.7774 41.606 42.322C40.6964 42.8988 39.6882 43.3029 38.632 43.514C37.5 43.754 36.306 43.874 35.052 43.874C33.8178 43.8794 32.5858 43.7696 31.372 43.546C30.3219 43.3644 29.3034 43.0323 28.348 42.56V37.3C30.1556 38.8382 32.4485 39.6883 34.822 39.7C35.488 39.7 36.07 39.64 36.566 39.52C37.064 39.4 37.478 39.232 37.812 39.02C38.144 38.804 38.392 38.552 38.558 38.26C38.7415 37.92 38.8249 37.535 38.7987 37.1496C38.7726 36.7642 38.6378 36.394 38.41 36.082C38.1128 35.6888 37.7494 35.3504 37.336 35.082C36.8233 34.7422 36.2835 34.4452 35.722 34.194C35.0565 33.8901 34.385 33.5993 33.708 33.322C31.872 32.556 30.504 31.618 29.602 30.512C28.702 29.406 28.25 28.068 28.25 26.502C28.25 25.274 28.496 24.22 28.988 23.338C29.48 22.456 30.148 21.73 30.996 21.16C31.8929 20.5683 32.8887 20.1422 33.936 19.902C35.096 19.6285 36.2843 19.4936 37.476 19.5ZM7.25 19.876H26.376V24.208H19.512V43.5H14.078V24.208H7.25V19.876Z" fill="white"/>
</g>
<defs>
<clipPath id="clip0_25_830">
<rect width="48" height="48" fill="white" transform="translate(0.5 0.000244141)"/>
</clipPath>
</defs>
</svg>
